<svg xmlns="http://www.w3.org/2000/svg" version="1.1" xmlns:xlink="http://www.w3.org/1999/xlink" xmlns:svgjs="http://svgjs.dev/svgjs" width="1000" height="623" viewBox="0 0 1000 623"><g transform="matrix(1,0,0,1,-0.6060497663892761,0.2522267206477409)"><svg viewBox="0 0 396 247" data-background-color="#ffffff" preserveAspectRatio="xMidYMid meet" height="623" width="1000" xmlns="http://www.w3.org/2000/svg" xmlns:xlink="http://www.w3.org/1999/xlink"><g id="tight-bounds" transform="matrix(1,0,0,1,0.2399957074901522,-0.09999999999999432)"><svg viewBox="0 0 395.52 247.2" height="247.2" width="395.52"><g><svg></svg></g><g><svg viewBox="0 0 395.52 247.2" height="247.2" width="395.52"><g><g><path xmlns="http://www.w3.org/2000/svg" d="M244.016 247.2v-3.745h1.873c1.748 0 3.371-0.699 4.869-2.098 1.498-1.348 2.822-3.096 3.97-5.244 1.099-2.097 1.898-4.345 2.397-6.741 0.499-2.347 0.749-4.52 0.75-6.517l0-32.577 25.094 0v32.577c0 1.998 0.325 4.17 0.974 6.517 0.599 2.397 1.398 4.594 2.397 6.592 0.999 1.998 2.197 3.745 3.596 5.243 1.348 1.498 2.896 2.247 4.644 2.248h1.873v3.745zM138.02 222.855c0 1.998 0.25 4.17 0.749 6.517 0.499 2.397 1.248 4.594 2.247 6.592 0.999 1.998 2.197 3.745 3.596 5.243 1.348 1.498 3.021 2.247 5.019 2.248h1.873v3.745h-52.437v-3.745h1.873c1.748 0 3.371-0.699 4.869-2.098 1.498-1.348 2.822-3.096 3.97-5.244 1.099-2.097 1.898-4.345 2.397-6.741 0.499-2.347 0.749-4.52 0.749-6.517v-32.577h25.095zM112.925 23.222c0-1.748-0.25-3.745-0.749-5.993-0.499-2.247-1.248-4.37-2.247-6.367-0.999-1.998-2.247-3.696-3.745-5.094-1.498-1.348-3.246-2.023-5.244-2.023h-1.873v-3.745h52.437v3.745h-1.873c-1.998 0-3.745 0.674-5.244 2.023-1.498 1.398-2.672 3.096-3.52 5.094-0.899 1.998-1.598 4.12-2.098 6.367-0.499 2.247-0.749 4.245-0.749 5.993l0 33.7-25.095 0zM257.875 23.222c0-1.748-0.25-3.745-0.75-5.993-0.499-2.247-1.248-4.37-2.247-6.367-0.999-1.998-2.247-3.696-3.745-5.094-1.498-1.348-3.246-2.023-5.244-2.023h-1.873v-3.745h52.437v3.745h-1.873c-1.998 0-3.745 0.674-5.244 2.023-1.498 1.398-2.672 3.096-3.52 5.094-0.899 1.998-1.598 4.12-2.098 6.367-0.499 2.247-0.749 4.245-0.749 5.993l0 33.7-25.094 0z" fill="#ba3b0a" fill-rule="nonzero" stroke="none" stroke-width="1" stroke-linecap="butt" stroke-linejoin="miter" stroke-miterlimit="10" stroke-dasharray="" stroke-dashoffset="0" font-family="none" font-weight="none" font-size="none" text-anchor="none" style="mix-blend-mode: normal" data-fill-palette-color="tertiary"></path></g></g><g transform="matrix(1,0,0,1,0,72.76597802481356)"><svg viewBox="0 0 395.52 101.66804395037286" height="101.66804395037286" width="395.52"><g><svg viewBox="0 0 395.52 101.66804395037286" height="101.66804395037286" width="395.52"><g><svg viewBox="0 0 395.52 101.66804395037286" height="101.66804395037286" width="395.52"><g><svg viewBox="0 0 395.52 101.66804395037286" height="101.66804395037286" width="395.52"><g><rect width="75.54432" height="6.052551158619905" y="89.28771762720069" fill="#ba3b0a" data-fill-palette-color="tertiary"></rect><rect width="75.54432" height="6.052551158619905" y="89.28771762720069" x="319.97568" fill="#ba3b0a" data-fill-palette-color="tertiary"></rect></g><g><svg viewBox="0 0 395.52 67.11556770186334" height="67.11556770186334" width="395.52"><g transform="matrix(1,0,0,1,0,0)"><svg width="395.52" viewBox="2.8499999046325684 -33.599998474121094 201.22999572753906 34.14999771118164" height="67.11556770186334" data-palette-color="#ba3b0a"><path d="M22.2 0L22.2-0.5 22.45-0.5Q22.8-0.5 23.1-0.78 23.4-1.05 23.63-1.48 23.85-1.9 23.95-2.38 24.05-2.85 24.05-3.25L24.05-3.25 24.05-16.85 8.05-16.85 8.05-3.25Q8.05-2.85 8.15-2.38 8.25-1.9 8.45-1.5 8.65-1.1 8.93-0.8 9.2-0.5 9.6-0.5L9.6-0.5 9.85-0.5 9.85 0 2.85 0 2.85-0.5 3.1-0.5Q3.45-0.5 3.75-0.78 4.05-1.05 4.28-1.48 4.5-1.9 4.6-2.38 4.7-2.85 4.7-3.25L4.7-3.25 4.7-29.9Q4.7-30.25 4.6-30.7 4.5-31.15 4.3-31.55 4.1-31.95 3.8-32.23 3.5-32.5 3.1-32.5L3.1-32.5 2.85-32.5 2.85-33 9.85-33 9.85-32.5 9.6-32.5Q9.2-32.5 8.9-32.23 8.6-31.95 8.43-31.55 8.25-31.15 8.15-30.7 8.05-30.25 8.05-29.9L8.05-29.9 8.05-18.6 24.05-18.6 24.05-29.9Q24.05-30.25 23.95-30.7 23.85-31.15 23.65-31.55 23.45-31.95 23.15-32.23 22.85-32.5 22.45-32.5L22.45-32.5 22.2-32.5 22.2-33 29.2-33 29.2-32.5 28.95-32.5Q28.55-32.5 28.25-32.23 27.95-31.95 27.78-31.55 27.6-31.15 27.5-30.7 27.4-30.25 27.4-29.9L27.4-29.9 27.4-3.25Q27.4-2.85 27.53-2.38 27.65-1.9 27.85-1.5 28.05-1.1 28.33-0.8 28.6-0.5 28.95-0.5L28.95-0.5 29.2-0.5 29.2 0 22.2 0ZM52.45 0L52.45-0.5 52.7-0.5Q53.9-0.5 53.9-1.6L53.9-1.6Q53.9-2 53.75-2.45L53.75-2.45 49.25-14.6 40.5-14.6 36.15-2.65Q36-2.25 36-1.9L36-1.9Q36-1.25 36.35-0.88 36.7-0.5 37.1-0.5L37.1-0.5 37.35-0.5 37.35 0 31.8 0 31.8-0.5 32.05-0.5Q32.7-0.5 33.32-1.28 33.95-2.05 34.35-3.1L34.35-3.1 45.8-33.6 57-3.4Q57.35-2.4 57.97-1.45 58.6-0.5 59.6-0.5L59.6-0.5 59.85-0.5 59.85 0 52.45 0ZM44.85-26.75L41-16.3 48.7-16.3 44.85-26.75ZM89.75 0L89.75-0.5 90-0.5Q90.34-0.5 90.64-0.8 90.94-1.1 91.17-1.5 91.39-1.9 91.5-2.38 91.59-2.85 91.59-3.25L91.59-3.25 91.59-29.55 78.69 0.55 66.44-28 66.44-3.25Q66.44-2.85 66.55-2.38 66.64-1.9 66.87-1.5 67.09-1.1 67.39-0.8 67.69-0.5 68.09-0.5L68.09-0.5 68.34-0.5 68.34 0 62.89 0 62.89-0.5 63.14-0.5Q63.49-0.5 63.8-0.8 64.09-1.1 64.3-1.5 64.5-1.9 64.59-2.38 64.69-2.85 64.69-3.25L64.69-3.25 64.69-29.9Q64.69-30.25 64.59-30.7 64.5-31.15 64.3-31.55 64.09-31.95 63.8-32.23 63.49-32.5 63.14-32.5L63.14-32.5 62.89-32.5 62.89-33 68-33 79.59-5.65 91.19-33 96.84-33 96.84-32.5 96.59-32.5Q96.19-32.5 95.9-32.23 95.59-31.95 95.37-31.55 95.15-31.15 95.05-30.7 94.94-30.25 94.94-29.9L94.94-29.9 94.94-3.25Q94.94-2.85 95.05-2.38 95.15-1.9 95.37-1.5 95.59-1.1 95.9-0.8 96.19-0.5 96.59-0.5L96.59-0.5 96.84-0.5 96.84 0 89.75 0ZM101.69 0L101.69-0.5 101.94-0.5Q102.29-0.5 102.59-0.8 102.89-1.1 103.12-1.5 103.34-1.9 103.44-2.38 103.54-2.85 103.54-3.25L103.54-3.25 103.54-29.85Q103.54-30.2 103.44-30.65 103.34-31.1 103.12-31.53 102.89-31.95 102.57-32.23 102.24-32.5 101.84-32.5L101.84-32.5 101.59-32.5 101.59-33 109.79-33Q114.44-33 117.07-30.95 119.69-28.9 119.69-25.5L119.69-25.5Q119.69-24.05 119.19-22.9 118.69-21.75 117.92-20.85 117.14-19.95 116.24-19.33 115.34-18.7 114.54-18.3L114.54-18.3Q116.64-17.9 118.04-16.95 119.44-16 120.32-14.78 121.19-13.55 121.54-12.15 121.89-10.75 121.89-9.4L121.89-9.4Q121.89-6.8 120.94-5.03 119.99-3.25 118.42-2.13 116.84-1 114.82-0.5 112.79 0 110.64 0L110.64 0 101.69 0ZM118.49-8.55L118.49-9.1Q118.09-12.95 115.89-15.05 113.69-17.15 109.69-17.15L109.69-17.15 106.89-17.15 106.89-1.65 109.79-1.65Q113.84-1.65 116.17-3.48 118.49-5.3 118.49-8.55L118.49-8.55ZM116.44-24.7L116.44-25.05Q116.29-27.95 114.42-29.65 112.54-31.35 109.39-31.35L109.39-31.35 106.89-31.35 106.89-18.75 109.49-18.75Q111.59-18.75 112.92-19.3 114.24-19.85 115.04-20.73 115.84-21.6 116.14-22.65 116.44-23.7 116.44-24.7L116.44-24.7ZM132.94-0.5L132.94-0.5 133.19-0.5 133.19 0 126.14 0 126.14-0.5 126.39-0.5Q126.74-0.5 127.04-0.8 127.34-1.1 127.56-1.5 127.79-1.9 127.89-2.38 127.99-2.85 127.99-3.25L127.99-3.25 127.99-29.9Q127.99-30.25 127.89-30.7 127.79-31.15 127.56-31.55 127.34-31.95 127.04-32.23 126.74-32.5 126.39-32.5L126.39-32.5 126.14-32.5 126.14-33 134.84-33Q139.84-33 142.56-31.05 145.29-29.1 145.29-25.3L145.29-25.3Q145.29-23.4 144.66-21.98 144.04-20.55 142.99-19.53 141.94-18.5 140.51-17.88 139.09-17.25 137.49-16.95L137.49-16.95 141.09-11.45Q142.39-9.45 143.74-7.53 145.09-5.6 146.39-3.55L146.39-3.55Q146.74-3.05 147.16-2.5 147.59-1.95 148.06-1.5 148.54-1.05 149.06-0.78 149.59-0.5 150.14-0.5L150.14-0.5 150.14 0 147.99 0Q145.99 0 144.72-0.98 143.44-1.95 142.59-3.25L142.59-3.25Q140.34-6.55 138.12-9.95 135.89-13.35 133.69-16.65L133.69-16.65Q133.14-16.7 132.51-16.78 131.89-16.85 131.34-16.95L131.34-16.95 131.34-3.25Q131.34-2.85 131.44-2.38 131.54-1.9 131.76-1.5 131.99-1.1 132.26-0.8 132.54-0.5 132.94-0.5ZM132.09-31.3L131.34-31.3 131.34-18.6 131.59-18.6Q131.99-18.55 132.87-18.53 133.74-18.5 135.04-18.5L135.04-18.5Q136.09-18.5 137.26-18.82 138.44-19.15 139.47-19.93 140.49-20.7 141.16-21.95 141.84-23.2 141.84-25.1L141.84-25.1Q141.84-27 141.12-28.2 140.39-29.4 139.12-30.1 137.84-30.8 136.04-31.05 134.24-31.3 132.09-31.3L132.09-31.3ZM153.14 0L153.14-0.5 153.39-0.5Q153.79-0.5 154.09-0.78 154.39-1.05 154.61-1.45 154.84-1.85 154.96-2.3 155.09-2.75 155.09-3.15L155.09-3.15 155.09-29.9Q155.09-30.25 154.96-30.7 154.84-31.15 154.61-31.55 154.39-31.95 154.09-32.23 153.79-32.5 153.39-32.5L153.39-32.5 153.14-32.5 153.14-33 172.39-33 172.39-28.35 171.89-28.35Q171.79-29.5 170.99-30.38 170.19-31.25 168.49-31.25L168.49-31.25 158.44-31.25 158.44-18.6 166.74-18.6Q167.89-18.6 168.66-19.3 169.44-20 169.44-20.95L169.44-20.95 169.94-20.95 169.94-14.7 169.44-14.7Q169.44-15.6 168.69-16.25 167.94-16.9 166.74-16.9L166.74-16.9 158.44-16.9 158.44-1.75 169.39-1.75Q170.34-1.75 171.04-2.2 171.74-2.65 172.21-3.28 172.69-3.9 172.91-4.63 173.14-5.35 173.14-5.85L173.14-5.85 173.64-5.85 173.64 0 153.14 0ZM182.63-0.5L182.63-0.5 182.88-0.5 182.88 0 177.33 0 177.33-0.5 177.58-0.5Q177.94-0.5 178.26-0.8 178.58-1.1 178.78-1.5 178.98-1.9 179.11-2.38 179.23-2.85 179.23-3.25L179.23-3.25 179.23-29.9Q179.23-30.25 179.16-30.7 179.08-31.15 178.88-31.55 178.69-31.95 178.33-32.23 177.98-32.5 177.48-32.5L177.48-32.5 177.23-32.5 177.23-33 182.28-33 200.44-4.4 200.44-29.9Q200.44-30.25 200.31-30.7 200.19-31.15 199.96-31.55 199.73-31.95 199.44-32.23 199.13-32.5 198.73-32.5L198.73-32.5 198.48-32.5 198.48-33 204.08-33 204.08-32.5 203.83-32.5Q203.44-32.5 203.13-32.23 202.83-31.95 202.61-31.55 202.38-31.15 202.28-30.7 202.19-30.25 202.19-29.9L202.19-29.9 202.19 0 199.08 0 180.98-28.7 180.98-3.25Q180.98-2.85 181.08-2.38 181.19-1.9 181.41-1.5 181.63-1.1 181.94-0.8 182.23-0.5 182.63-0.5Z" opacity="1" transform="matrix(1,0,0,1,0,0)" fill="#ba3b0a" class="undefined-text-0" data-fill-palette-color="primary" id="text-0"></path></svg></g></svg></g><g transform="matrix(1,0,0,1,75.54432,82.95994246264843)"><svg viewBox="0 0 244.43135999999998 18.708101487724438" height="18.708101487724438" width="244.43135999999998"><g transform="matrix(1,0,0,1,8,0)"><svg width="228.43135999999998" viewBox="1.850000023841858 -33.5 545.7400512695312 44.70000076293945" height="18.708101487724438" data-palette-color="#ba3b0a"><path d="M19.1-33.5L19.1-33.5Q23-33.5 26.1-32.13 29.2-30.75 31.38-28.43 33.55-26.1 34.73-23.03 35.9-19.95 35.9-16.6L35.9-16.6Q35.9-12.85 34.52-9.7 33.15-6.55 30.75-4.3 28.35-2.05 25.18-0.78 22 0.5 18.4 0.5L18.4 0.5Q14.55 0.5 11.48-0.9 8.4-2.3 6.28-4.6 4.15-6.9 3-9.9 1.85-12.9 1.85-16.15L1.85-16.15Q1.85-19.35 3-22.48 4.15-25.6 6.38-28.05 8.6-30.5 11.8-32 15-33.5 19.1-33.5ZM19.05-1.25L19.05-1.25Q22.4-1.4 24.93-2.78 27.45-4.15 29.15-6.28 30.85-8.4 31.68-10.95 32.5-13.5 32.5-16L32.5-16Q32.5-18.75 31.5-21.55 30.5-24.35 28.65-26.63 26.8-28.9 24.23-30.33 21.65-31.75 18.45-31.75L18.45-31.75Q15.35-31.75 12.9-30.38 10.45-29 8.72-26.85 7-24.7 6.1-22.05 5.2-19.4 5.2-16.85L5.2-16.85Q5.2-14.1 6.25-11.33 7.3-8.55 9.15-6.3 11-4.05 13.53-2.65 16.05-1.25 19.05-1.25ZM60.4-12.9L60.4-3.25Q60.4-2.85 60.5-2.38 60.6-1.9 60.82-1.5 61.05-1.1 61.32-0.8 61.6-0.5 62-0.5L62-0.5 62 0 55.55 0 55.55-0.5Q55.9-0.5 56.2-0.8 56.5-1.1 56.72-1.5 56.95-1.9 57.05-2.38 57.15-2.85 57.15-3.25L57.15-3.25 57.15-12.55Q57.15-14.35 56.65-15.7 56.15-17.05 55.3-17.95 54.45-18.85 53.37-19.28 52.3-19.7 51.2-19.7L51.2-19.7Q50.1-19.7 49.02-19.25 47.95-18.8 47.12-18.07 46.3-17.35 45.77-16.38 45.25-15.4 45.25-14.35L45.25-14.35 45.25-3.25Q45.25-2.85 45.35-2.38 45.45-1.9 45.67-1.5 45.9-1.1 46.17-0.8 46.45-0.5 46.85-0.5L46.85-0.5 46.85 0 40.35 0 40.35-0.5Q40.7-0.5 41-0.8 41.3-1.1 41.52-1.5 41.75-1.9 41.85-2.38 41.95-2.85 41.95-3.25L41.95-3.25 41.95-17.05Q41.95-17.9 41.7-18.68 41.45-19.45 40.25-19.5L40.25-19.5 40.25-19.95 45.25-21.55 45.25-18.8Q45.6-19.2 46.15-19.68 46.7-20.15 47.47-20.58 48.25-21 49.27-21.28 50.3-21.55 51.7-21.55L51.7-21.55Q54.05-21.55 55.7-20.75 57.35-19.95 58.4-18.68 59.45-17.4 59.92-15.88 60.4-14.35 60.4-12.9L60.4-12.9ZM87-10.1L69.65-10.1Q69.85-8.35 70.5-6.78 71.15-5.2 72.22-4 73.3-2.8 74.85-2.08 76.4-1.35 78.45-1.35L78.45-1.35Q79.55-1.35 80.77-1.68 82-2 83.05-2.6 84.1-3.2 84.92-4.08 85.75-4.95 86.05-6.05L86.05-6.05 86.5-6.05 86.5-2.3Q86.2-2.3 85.82-2.1 85.45-1.9 84.95-1.6L84.95-1.6Q83.95-1 82.25-0.33 80.55 0.35 77.75 0.35L77.75 0.35Q75.5 0.35 73.47-0.3 71.45-0.95 69.9-2.3 68.35-3.65 67.42-5.75 66.5-7.85 66.5-10.75L66.5-10.75Q66.5-12.6 67.12-14.5 67.75-16.4 69.02-17.93 70.3-19.45 72.3-20.4 74.3-21.35 77.1-21.35L77.1-21.35Q79.6-21.35 81.47-20.5 83.35-19.65 84.57-18.15 85.8-16.65 86.4-14.6 87-12.55 87-10.1L87-10.1ZM76.9-19.7L76.9-19.7Q75.15-19.7 73.87-19 72.6-18.3 71.7-17.2 70.8-16.1 70.3-14.7 69.8-13.3 69.65-11.9L69.65-11.9 83.9-11.9Q83.85-13.35 83.37-14.75 82.9-16.15 82.05-17.25 81.2-18.35 79.9-19.03 78.6-19.7 76.9-19.7ZM124.39-8.85L124.39-8.85Q124.39-6.35 123.39-4.58 122.39-2.8 120.82-1.7 119.24-0.6 117.27-0.1 115.29 0.4 113.34 0.4L113.34 0.4Q111.34 0.4 109.89 0 108.44-0.4 107.24-0.75L107.24-0.75Q106.44-1 105.79-1.18 105.14-1.35 104.49-1.35L104.49-1.35 104.49-7.05 104.99-7.05Q104.99-5.15 105.97-4.03 106.94-2.9 108.24-2.3 109.54-1.7 110.84-1.53 112.14-1.35 112.74-1.35L112.74-1.35Q114.89-1.35 116.44-1.98 117.99-2.6 118.99-3.63 119.99-4.65 120.47-5.9 120.94-7.15 120.94-8.45L120.94-8.45Q120.94-10.1 120.24-11.23 119.54-12.35 118.42-13.2 117.29-14.05 115.84-14.65 114.39-15.25 112.89-15.85L112.89-15.85Q111.19-16.5 109.54-17.2 107.89-17.9 106.59-18.93 105.29-19.95 104.49-21.38 103.69-22.8 103.69-24.9L103.69-24.9Q103.69-27.1 104.54-28.73 105.39-30.35 106.82-31.4 108.24-32.45 110.07-32.98 111.89-33.5 113.79-33.5L113.79-33.5Q115.09-33.5 116.24-33.33 117.39-33.15 118.44-32.9L118.44-32.9Q119.29-32.7 120.09-32.58 120.89-32.45 121.64-32.45L121.64-32.45 121.64-27.3 121.14-27.3Q121.04-29.9 119.09-30.83 117.14-31.75 113.69-31.75L113.69-31.75Q111.69-31.75 110.42-31.08 109.14-30.4 108.39-29.43 107.64-28.45 107.37-27.33 107.09-26.2 107.09-25.35L107.09-25.35Q107.09-23.95 107.72-22.95 108.34-21.95 109.39-21.2 110.44-20.45 111.82-19.85 113.19-19.25 114.69-18.7L114.69-18.7Q116.39-18.05 118.14-17.3 119.89-16.55 121.27-15.45 122.64-14.35 123.52-12.75 124.39-11.15 124.39-8.85ZM139.14-19.3L133.54-19.3 133.54-7.25Q133.54-5.95 133.59-4.9 133.64-3.85 133.84-3.15 134.04-2.45 134.44-2.08 134.84-1.7 135.54-1.7L135.54-1.7Q136.59-1.7 137.51-2.7 138.44-3.7 138.69-5.1L138.69-5.1 139.14-5.1 139.14-1.45Q138.69-1.45 138.39-1.15L138.39-1.15Q137.99-0.8 137.26-0.4 136.54 0 135.09 0L135.09 0Q133.29 0 132.29-0.7 131.29-1.4 130.84-2.55 130.39-3.7 130.31-5.1 130.24-6.5 130.24-7.95L130.24-7.95 130.24-19.3 127.44-19.3 127.44-21 130.24-21 130.24-25.45Q130.24-26.3 130.01-27.03 129.79-27.75 128.54-27.8L128.54-27.8 128.54-28.3 133.54-29.9 133.54-21 139.14-21 139.14-19.3ZM153.39 0.35L153.39 0.35Q150.89 0.35 148.89-0.48 146.89-1.3 145.46-2.73 144.04-4.15 143.26-6.1 142.49-8.05 142.49-10.35L142.49-10.35Q142.49-12.8 143.34-14.83 144.19-16.85 145.69-18.3 147.19-19.75 149.24-20.55 151.29-21.35 153.69-21.35L153.69-21.35Q156.09-21.35 158.09-20.58 160.09-19.8 161.54-18.4 162.99-17 163.79-15.08 164.59-13.15 164.59-10.85L164.59-10.85Q164.59-8.7 163.86-6.68 163.14-4.65 161.71-3.1 160.29-1.55 158.21-0.6 156.14 0.35 153.39 0.35ZM153.09-19.7L153.09-19.7Q151.29-19.6 149.91-18.82 148.54-18.05 147.61-16.82 146.69-15.6 146.21-14.05 145.74-12.5 145.74-10.9L145.74-10.9Q145.74-9.05 146.31-7.33 146.89-5.6 147.96-4.25 149.04-2.9 150.54-2.1 152.04-1.3 153.89-1.3L153.89-1.3Q155.74-1.3 157.16-2.1 158.59-2.9 159.54-4.17 160.49-5.45 160.96-7.05 161.44-8.65 161.44-10.25L161.44-10.25Q161.44-11.9 160.94-13.58 160.44-15.25 159.39-16.63 158.34-18 156.76-18.85 155.19-19.7 153.09-19.7ZM179.68-21.35L179.68-21.35Q182.38-21.35 184.36-20.43 186.33-19.5 187.66-18 188.98-16.5 189.63-14.55 190.28-12.6 190.28-10.55L190.28-10.55Q190.28-8.55 189.66-6.6 189.03-4.65 187.76-3.1 186.48-1.55 184.58-0.6 182.68 0.35 180.08 0.35L180.08 0.35Q178.53 0.35 176.91-0.48 175.28-1.3 173.98-2.55L173.98-2.55 173.98 7.25Q173.98 7.65 174.08 8.13 174.18 8.6 174.41 9 174.63 9.4 174.91 9.7 175.18 10 175.58 10L175.58 10 175.58 10.5 169.08 10.5 169.08 10Q169.43 10 169.73 9.7 170.03 9.4 170.26 9 170.48 8.6 170.58 8.13 170.68 7.65 170.68 7.25L170.68 7.25 170.68-18.05Q170.68-18.5 170.66-18.93 170.63-19.35 170.48-19.68 170.33-20 170.01-20.23 169.68-20.45 169.08-20.5L169.08-20.5 169.08-21 173.98-21 173.98-18.8Q174.98-20 176.41-20.68 177.83-21.35 179.68-21.35ZM180.13-1.35L180.13-1.35Q181.88-1.4 183.18-2.15 184.48-2.9 185.33-4.1 186.18-5.3 186.58-6.78 186.98-8.25 186.98-9.85L186.98-9.85Q186.98-11.65 186.48-13.4 185.98-15.15 185.03-16.53 184.08-17.9 182.71-18.78 181.33-19.65 179.58-19.65L179.58-19.65Q178.53-19.65 177.51-19.25 176.48-18.85 175.71-18.1 174.93-17.35 174.46-16.32 173.98-15.3 173.98-14.05L173.98-14.05 173.98-7.5Q173.98-6.15 174.53-5.03 175.08-3.9 175.96-3.08 176.83-2.25 177.93-1.8 179.03-1.35 180.13-1.35ZM228.03-8.85L228.03-8.85Q228.03-6.35 227.03-4.58 226.03-2.8 224.45-1.7 222.88-0.6 220.9-0.1 218.93 0.4 216.98 0.4L216.98 0.4Q214.98 0.4 213.53 0 212.08-0.4 210.88-0.75L210.88-0.75Q210.08-1 209.43-1.18 208.78-1.35 208.13-1.35L208.13-1.35 208.13-7.05 208.63-7.05Q208.63-5.15 209.6-4.03 210.58-2.9 211.88-2.3 213.18-1.7 214.48-1.53 215.78-1.35 216.38-1.35L216.38-1.35Q218.53-1.35 220.08-1.98 221.63-2.6 222.63-3.63 223.63-4.65 224.1-5.9 224.58-7.15 224.58-8.45L224.58-8.45Q224.58-10.1 223.88-11.23 223.18-12.35 222.05-13.2 220.93-14.05 219.48-14.65 218.03-15.25 216.53-15.85L216.53-15.85Q214.83-16.5 213.18-17.2 211.53-17.9 210.23-18.93 208.93-19.95 208.13-21.38 207.33-22.8 207.33-24.9L207.33-24.9Q207.33-27.1 208.18-28.73 209.03-30.35 210.45-31.4 211.88-32.45 213.7-32.98 215.53-33.5 217.43-33.5L217.43-33.5Q218.73-33.5 219.88-33.33 221.03-33.15 222.08-32.9L222.08-32.9Q222.93-32.7 223.73-32.58 224.53-32.45 225.28-32.45L225.28-32.45 225.28-27.3 224.78-27.3Q224.68-29.9 222.73-30.83 220.78-31.75 217.33-31.75L217.33-31.75Q215.33-31.75 214.05-31.08 212.78-30.4 212.03-29.43 211.28-28.45 211-27.33 210.73-26.2 210.73-25.35L210.73-25.35Q210.73-23.95 211.35-22.95 211.98-21.95 213.03-21.2 214.08-20.45 215.45-19.85 216.83-19.25 218.33-18.7L218.33-18.7Q220.03-18.05 221.78-17.3 223.53-16.55 224.9-15.45 226.28-14.35 227.15-12.75 228.03-11.15 228.03-8.85ZM252.38-12.9L252.38-3.25Q252.38-2.85 252.48-2.38 252.58-1.9 252.8-1.5 253.03-1.1 253.3-0.8 253.58-0.5 253.98-0.5L253.98-0.5 253.98 0 247.53 0 247.53-0.5Q247.88-0.5 248.18-0.8 248.48-1.1 248.7-1.5 248.93-1.9 249.03-2.38 249.13-2.85 249.13-3.25L249.13-3.25 249.13-12.55Q249.13-14.35 248.63-15.7 248.13-17.05 247.28-17.95 246.43-18.85 245.35-19.28 244.28-19.7 243.18-19.7L243.18-19.7Q242.08-19.7 241-19.28 239.93-18.85 239.1-18.1 238.28-17.35 237.75-16.28 237.23-15.2 237.23-13.9L237.23-13.9 237.23-3.25Q237.23-2.85 237.33-2.38 237.43-1.9 237.65-1.5 237.88-1.1 238.15-0.8 238.43-0.5 238.83-0.5L238.83-0.5 238.83 0 232.33 0 232.33-0.5Q232.68-0.5 232.98-0.8 233.28-1.1 233.5-1.5 233.73-1.9 233.83-2.38 233.93-2.85 233.93-3.25L233.93-3.25 233.93-28.8Q233.93-29.65 233.68-30.4 233.43-31.15 232.23-31.2L232.23-31.2 232.23-31.7 237.23-33.25 237.23-18.8Q237.58-19.2 238.13-19.68 238.68-20.15 239.45-20.58 240.23-21 241.25-21.28 242.28-21.55 243.68-21.55L243.68-21.55Q246.03-21.55 247.68-20.75 249.33-19.95 250.38-18.68 251.43-17.4 251.9-15.88 252.38-14.35 252.38-12.9L252.38-12.9ZM269.37 0.35L269.37 0.35Q266.87 0.35 264.87-0.48 262.87-1.3 261.45-2.73 260.02-4.15 259.25-6.1 258.47-8.05 258.47-10.35L258.47-10.35Q258.47-12.8 259.32-14.83 260.17-16.85 261.67-18.3 263.17-19.75 265.22-20.55 267.27-21.35 269.67-21.35L269.67-21.35Q272.07-21.35 274.07-20.58 276.07-19.8 277.52-18.4 278.97-17 279.77-15.08 280.57-13.15 280.57-10.85L280.57-10.85Q280.57-8.7 279.85-6.68 279.12-4.65 277.7-3.1 276.27-1.55 274.2-0.6 272.12 0.35 269.37 0.35ZM269.07-19.7L269.07-19.7Q267.27-19.6 265.9-18.82 264.52-18.05 263.6-16.82 262.67-15.6 262.2-14.05 261.72-12.5 261.72-10.9L261.72-10.9Q261.72-9.05 262.3-7.33 262.87-5.6 263.95-4.25 265.02-2.9 266.52-2.1 268.02-1.3 269.87-1.3L269.87-1.3Q271.72-1.3 273.15-2.1 274.57-2.9 275.52-4.17 276.47-5.45 276.95-7.05 277.42-8.65 277.42-10.25L277.42-10.25Q277.42-11.9 276.92-13.58 276.42-15.25 275.37-16.63 274.32-18 272.75-18.85 271.17-19.7 269.07-19.7ZM295.67-21.35L295.67-21.35Q298.37-21.35 300.35-20.43 302.32-19.5 303.65-18 304.97-16.5 305.62-14.55 306.27-12.6 306.27-10.55L306.27-10.55Q306.27-8.55 305.65-6.6 305.02-4.65 303.75-3.1 302.47-1.55 300.57-0.6 298.67 0.35 296.07 0.35L296.07 0.35Q294.52 0.35 292.9-0.48 291.27-1.3 289.97-2.55L289.97-2.55 289.97 7.25Q289.97 7.65 290.07 8.13 290.17 8.6 290.4 9 290.62 9.4 290.9 9.7 291.17 10 291.57 10L291.57 10 291.57 10.5 285.07 10.5 285.07 10Q285.42 10 285.72 9.7 286.02 9.4 286.25 9 286.47 8.6 286.57 8.13 286.67 7.65 286.67 7.25L286.67 7.25 286.67-18.05Q286.67-18.5 286.65-18.93 286.62-19.35 286.47-19.68 286.32-20 286-20.23 285.67-20.45 285.07-20.5L285.07-20.5 285.07-21 289.97-21 289.97-18.8Q290.97-20 292.4-20.68 293.82-21.35 295.67-21.35ZM296.12-1.35L296.12-1.35Q297.87-1.4 299.17-2.15 300.47-2.9 301.32-4.1 302.17-5.3 302.57-6.78 302.97-8.25 302.97-9.85L302.97-9.85Q302.97-11.65 302.47-13.4 301.97-15.15 301.02-16.53 300.07-17.9 298.7-18.78 297.32-19.65 295.57-19.65L295.57-19.65Q294.52-19.65 293.5-19.25 292.47-18.85 291.7-18.1 290.92-17.35 290.45-16.32 289.97-15.3 289.97-14.05L289.97-14.05 289.97-7.5Q289.97-6.15 290.52-5.03 291.07-3.9 291.95-3.08 292.82-2.25 293.92-1.8 295.02-1.35 296.12-1.35ZM321.42-21.35L321.42-21.35Q324.12-21.35 326.09-20.43 328.07-19.5 329.39-18 330.72-16.5 331.37-14.55 332.02-12.6 332.02-10.55L332.02-10.55Q332.02-8.55 331.39-6.6 330.77-4.65 329.49-3.1 328.22-1.55 326.32-0.6 324.42 0.35 321.82 0.35L321.82 0.35Q320.27 0.35 318.64-0.48 317.02-1.3 315.72-2.55L315.72-2.55 315.72 7.25Q315.72 7.65 315.82 8.13 315.92 8.6 316.14 9 316.37 9.4 316.64 9.7 316.92 10 317.32 10L317.32 10 317.32 10.5 310.82 10.5 310.82 10Q311.17 10 311.47 9.7 311.77 9.4 311.99 9 312.22 8.6 312.32 8.13 312.42 7.65 312.42 7.25L312.42 7.25 312.42-18.05Q312.42-18.5 312.39-18.93 312.37-19.35 312.22-19.68 312.07-20 311.74-20.23 311.42-20.45 310.82-20.5L310.82-20.5 310.82-21 315.72-21 315.72-18.8Q316.72-20 318.14-20.68 319.57-21.35 321.42-21.35ZM321.87-1.35L321.87-1.35Q323.62-1.4 324.92-2.15 326.22-2.9 327.07-4.1 327.92-5.3 328.32-6.78 328.72-8.25 328.72-9.85L328.72-9.85Q328.72-11.65 328.22-13.4 327.72-15.15 326.77-16.53 325.82-17.9 324.44-18.78 323.07-19.65 321.32-19.65L321.32-19.65Q320.27-19.65 319.24-19.25 318.22-18.85 317.44-18.1 316.67-17.35 316.19-16.32 315.72-15.3 315.72-14.05L315.72-14.05 315.72-7.5Q315.72-6.15 316.27-5.03 316.82-3.9 317.69-3.08 318.57-2.25 319.67-1.8 320.77-1.35 321.87-1.35ZM343.72 0L337.22 0 337.22-0.5Q337.62-0.5 337.92-0.8 338.22-1.1 338.42-1.5 338.62-1.9 338.72-2.38 338.82-2.85 338.82-3.25L338.82-3.25 338.82-17.1Q338.82-17.95 338.57-18.73 338.32-19.5 337.12-19.55L337.12-19.55 337.12-20 342.12-21.6 342.12-3.25Q342.12-2.85 342.22-2.38 342.32-1.9 342.52-1.5 342.72-1.1 343.02-0.8 343.32-0.5 343.72-0.5L343.72-0.5 343.72 0ZM337.47-26.4L337.47-26.4Q337.47-27.4 338.14-28.1 338.82-28.8 339.82-28.8L339.82-28.8Q340.82-28.8 341.52-28.1 342.22-27.4 342.22-26.4L342.22-26.4Q342.22-25.4 341.52-24.75 340.82-24.1 339.82-24.1L339.82-24.1Q338.82-24.1 338.14-24.75 337.47-25.4 337.47-26.4ZM369.16-12.9L369.16-3.25Q369.16-2.85 369.26-2.38 369.36-1.9 369.59-1.5 369.81-1.1 370.09-0.8 370.36-0.5 370.76-0.5L370.76-0.5 370.76 0 364.31 0 364.31-0.5Q364.66-0.5 364.96-0.8 365.26-1.1 365.49-1.5 365.71-1.9 365.81-2.38 365.91-2.85 365.91-3.25L365.91-3.25 365.91-12.55Q365.91-14.35 365.41-15.7 364.91-17.05 364.06-17.95 363.21-18.85 362.14-19.28 361.06-19.7 359.96-19.7L359.96-19.7Q358.86-19.7 357.79-19.25 356.71-18.8 355.89-18.07 355.06-17.35 354.54-16.38 354.01-15.4 354.01-14.35L354.01-14.35 354.01-3.25Q354.01-2.85 354.11-2.38 354.21-1.9 354.44-1.5 354.66-1.1 354.94-0.8 355.21-0.5 355.61-0.5L355.61-0.5 355.61 0 349.11 0 349.11-0.5Q349.46-0.5 349.76-0.8 350.06-1.1 350.29-1.5 350.51-1.9 350.61-2.38 350.71-2.85 350.71-3.25L350.71-3.25 350.71-17.05Q350.71-17.9 350.46-18.68 350.21-19.45 349.01-19.5L349.01-19.5 349.01-19.95 354.01-21.55 354.01-18.8Q354.36-19.2 354.91-19.68 355.46-20.15 356.24-20.58 357.01-21 358.04-21.28 359.06-21.55 360.46-21.55L360.46-21.55Q362.81-21.55 364.46-20.75 366.11-19.95 367.16-18.68 368.21-17.4 368.69-15.88 369.16-14.35 369.16-12.9L369.16-12.9ZM386.06 9.3L386.06 9.3Q387.56 9.3 388.91 9.03 390.26 8.75 391.29 8.25 392.31 7.75 392.91 7.05 393.51 6.35 393.51 5.55L393.51 5.55Q393.51 4.7 392.69 4.1 391.86 3.5 390.46 3.05 389.06 2.6 387.21 2.27 385.36 1.95 383.36 1.6L383.36 1.6 380.81 1.15Q379.66 2.05 379.21 3.05 378.76 4.05 378.76 4.8L378.76 4.8Q378.76 5.85 379.34 6.68 379.91 7.5 380.89 8.1 381.86 8.7 383.19 9 384.51 9.3 386.06 9.3ZM382.56-1.7L388.81-0.7Q390.81-0.4 392.14 0.1 393.46 0.6 394.26 1.28 395.06 1.95 395.36 2.78 395.66 3.6 395.66 4.55L395.66 4.55Q395.66 6.25 394.74 7.5 393.81 8.75 392.34 9.58 390.86 10.4 388.99 10.8 387.11 11.2 385.16 11.2L385.16 11.2Q383.26 11.2 381.51 10.83 379.76 10.45 378.41 9.7 377.06 8.95 376.26 7.83 375.46 6.7 375.46 5.25L375.46 5.25Q375.46 3.95 376.26 2.78 377.06 1.6 378.86 0.45L378.86 0.45Q377.11-0.45 376.19-1.98 375.26-3.5 375.26-5.1L375.26-5.1Q375.26-6.05 375.71-6.98 376.16-7.9 377.16-8.7L377.16-8.7Q376.31-9.7 375.96-10.7 375.61-11.7 375.61-12.85L375.61-12.85Q375.61-14.65 376.36-16.2 377.11-17.75 378.41-18.9 379.71-20.05 381.46-20.7 383.21-21.35 385.21-21.35L385.21-21.35Q387.31-21.35 389.21-20.63 391.11-19.9 392.41-18.75L392.41-18.75 396.01-18.75 396.01-16.95 393.71-16.95Q394.06-16.2 394.41-15.18 394.76-14.15 394.76-13.05L394.76-13.05Q394.76-11.45 394.01-10.03 393.26-8.6 391.94-7.53 390.61-6.45 388.84-5.83 387.06-5.2 385.06-5.2L385.06-5.2Q383.21-5.2 381.46-5.75 379.71-6.3 378.36-7.35L378.36-7.35Q377.81-7 377.61-6.48 377.41-5.95 377.41-5.4L377.41-5.4Q377.41-3.8 378.86-2.93 380.31-2.05 382.56-1.7L382.56-1.7ZM384.61-19.6L384.61-19.6Q383.41-19.6 382.36-19.18 381.31-18.75 380.51-18 379.71-17.25 379.24-16.18 378.76-15.1 378.76-13.75L378.76-13.75Q378.76-12.1 379.44-10.8 380.11-9.5 381.16-8.65 382.21-7.8 383.49-7.35 384.76-6.9 385.91-6.9L385.91-6.9Q387.16-6.9 388.19-7.38 389.21-7.85 389.96-8.68 390.71-9.5 391.11-10.6 391.51-11.7 391.51-12.9L391.51-12.9Q391.51-14.4 390.91-15.65 390.31-16.9 389.34-17.78 388.36-18.65 387.11-19.13 385.86-19.6 384.61-19.6ZM431.01-31.7L431.01-31.7Q427.31-31.7 424.58-30.38 421.86-29.05 420.06-26.93 418.26-24.8 417.38-22.15 416.51-19.5 416.51-16.9L416.51-16.9Q416.51-13.95 417.66-11.13 418.81-8.3 420.83-6.13 422.86-3.95 425.56-2.63 428.26-1.3 431.41-1.3L431.41-1.3Q432.31-1.3 433.53-1.5 434.76-1.7 435.96-2.27 437.16-2.85 438.18-3.9 439.21-4.95 439.76-6.65L439.76-6.65 440.26-6.65 440.26-1.1Q439.51-1.1 438.68-0.9 437.86-0.7 436.86-0.45L436.86-0.45Q435.56-0.1 433.98 0.2 432.41 0.5 430.66 0.5L430.66 0.5Q426.31 0.5 423.01-1 419.71-2.5 417.51-4.9 415.31-7.3 414.21-10.33 413.11-13.35 413.11-16.45L413.11-16.45Q413.11-19.55 414.21-22.6 415.31-25.65 417.56-28.08 419.81-30.5 423.21-32 426.61-33.5 431.21-33.5L431.21-33.5Q432.86-33.5 434.18-33.2 435.51-32.9 436.56-32.6L436.56-32.6Q437.31-32.35 437.93-32.23 438.56-32.1 439.16-32.1L439.16-32.1 439.16-26.55 438.66-26.55Q438.36-28.1 437.56-29.13 436.76-30.15 435.68-30.7 434.61-31.25 433.38-31.48 432.16-31.7 431.01-31.7ZM464.65-10.1L447.3-10.1Q447.5-8.35 448.15-6.78 448.8-5.2 449.88-4 450.95-2.8 452.5-2.08 454.05-1.35 456.1-1.35L456.1-1.35Q457.2-1.35 458.43-1.68 459.65-2 460.7-2.6 461.75-3.2 462.58-4.08 463.4-4.95 463.7-6.05L463.7-6.05 464.15-6.05 464.15-2.3Q463.85-2.3 463.48-2.1 463.1-1.9 462.6-1.6L462.6-1.6Q461.6-1 459.9-0.33 458.2 0.35 455.4 0.35L455.4 0.35Q453.15 0.35 451.13-0.3 449.1-0.95 447.55-2.3 446-3.65 445.08-5.75 444.15-7.85 444.15-10.75L444.15-10.75Q444.15-12.6 444.78-14.5 445.4-16.4 446.68-17.93 447.95-19.45 449.95-20.4 451.95-21.35 454.75-21.35L454.75-21.35Q457.25-21.35 459.13-20.5 461-19.65 462.23-18.15 463.45-16.65 464.05-14.6 464.65-12.55 464.65-10.1L464.65-10.1ZM454.55-19.7L454.55-19.7Q452.8-19.7 451.53-19 450.25-18.3 449.35-17.2 448.45-16.1 447.95-14.7 447.45-13.3 447.3-11.9L447.3-11.9 461.55-11.9Q461.5-13.35 461.03-14.75 460.55-16.15 459.7-17.25 458.85-18.35 457.55-19.03 456.25-19.7 454.55-19.7ZM488.9-12.9L488.9-3.25Q488.9-2.85 489-2.38 489.1-1.9 489.33-1.5 489.55-1.1 489.83-0.8 490.1-0.5 490.5-0.5L490.5-0.5 490.5 0 484.05 0 484.05-0.5Q484.4-0.5 484.7-0.8 485-1.1 485.23-1.5 485.45-1.9 485.55-2.38 485.65-2.85 485.65-3.25L485.65-3.25 485.65-12.55Q485.65-14.35 485.15-15.7 484.65-17.05 483.8-17.95 482.95-18.85 481.88-19.28 480.8-19.7 479.7-19.7L479.7-19.7Q478.6-19.7 477.53-19.25 476.45-18.8 475.63-18.07 474.8-17.35 474.28-16.38 473.75-15.4 473.75-14.35L473.75-14.35 473.75-3.25Q473.75-2.85 473.85-2.38 473.95-1.9 474.18-1.5 474.4-1.1 474.68-0.8 474.95-0.5 475.35-0.5L475.35-0.5 475.35 0 468.85 0 468.85-0.5Q469.2-0.5 469.5-0.8 469.8-1.1 470.03-1.5 470.25-1.9 470.35-2.38 470.45-2.85 470.45-3.25L470.45-3.25 470.45-17.05Q470.45-17.9 470.2-18.68 469.95-19.45 468.75-19.5L468.75-19.5 468.75-19.95 473.75-21.55 473.75-18.8Q474.1-19.2 474.65-19.68 475.2-20.15 475.98-20.58 476.75-21 477.78-21.28 478.8-21.55 480.2-21.55L480.2-21.55Q482.55-21.55 484.2-20.75 485.85-19.95 486.9-18.68 487.95-17.4 488.43-15.88 488.9-14.35 488.9-12.9L488.9-12.9ZM505.9-19.3L500.3-19.3 500.3-7.25Q500.3-5.95 500.35-4.9 500.4-3.85 500.6-3.15 500.8-2.45 501.2-2.08 501.6-1.7 502.3-1.7L502.3-1.7Q503.35-1.7 504.27-2.7 505.2-3.7 505.45-5.1L505.45-5.1 505.9-5.1 505.9-1.45Q505.45-1.45 505.15-1.15L505.15-1.15Q504.75-0.8 504.02-0.4 503.3 0 501.85 0L501.85 0Q500.05 0 499.05-0.7 498.05-1.4 497.6-2.55 497.15-3.7 497.07-5.1 497-6.5 497-7.95L497-7.95 497-19.3 494.2-19.3 494.2-21 497-21 497-25.45Q497-26.3 496.77-27.03 496.55-27.75 495.3-27.8L495.3-27.8 495.3-28.3 500.3-29.9 500.3-21 505.9-21 505.9-19.3ZM529.75-10.1L512.4-10.1Q512.6-8.35 513.25-6.78 513.9-5.2 514.97-4 516.05-2.8 517.6-2.08 519.15-1.35 521.2-1.35L521.2-1.35Q522.3-1.35 523.52-1.68 524.75-2 525.8-2.6 526.85-3.2 527.67-4.08 528.5-4.95 528.8-6.05L528.8-6.05 529.25-6.05 529.25-2.3Q528.95-2.3 528.57-2.1 528.2-1.9 527.7-1.6L527.7-1.6Q526.7-1 525-0.33 523.3 0.35 520.5 0.35L520.5 0.35Q518.25 0.35 516.22-0.3 514.2-0.95 512.65-2.3 511.1-3.65 510.17-5.75 509.25-7.85 509.25-10.75L509.25-10.75Q509.25-12.6 509.87-14.5 510.5-16.4 511.77-17.93 513.05-19.45 515.05-20.4 517.05-21.35 519.85-21.35L519.85-21.35Q522.35-21.35 524.22-20.5 526.1-19.65 527.32-18.15 528.55-16.65 529.15-14.6 529.75-12.55 529.75-10.1L529.75-10.1ZM519.65-19.7L519.65-19.7Q517.9-19.7 516.62-19 515.35-18.3 514.45-17.2 513.55-16.1 513.05-14.7 512.55-13.3 512.4-11.9L512.4-11.9 526.65-11.9Q526.6-13.35 526.12-14.75 525.65-16.15 524.8-17.25 523.95-18.35 522.65-19.03 521.35-19.7 519.65-19.7ZM547.59-20.4L546.09-17.35Q545.49-18.35 544.84-18.6 544.19-18.85 543.34-18.85L543.34-18.85Q542.79-18.85 542.17-18.6 541.54-18.35 540.94-17.95 540.34-17.55 539.77-17.07 539.19-16.6 538.79-16.2L538.79-16.2 538.79-3.2Q538.79-2.8 538.89-2.35 538.99-1.9 539.22-1.48 539.44-1.05 539.72-0.78 539.99-0.5 540.39-0.5L540.39-0.5 540.39 0 533.89 0 533.89-0.5Q534.24-0.5 534.54-0.78 534.84-1.05 535.07-1.48 535.29-1.9 535.39-2.35 535.49-2.8 535.49-3.2L535.49-3.2 535.49-17.15Q535.49-17.85 535.04-18.55 534.59-19.25 533.74-19.45L533.74-19.45 533.74-19.85 538.79-21.35 538.79-18.35Q539.24-18.9 539.74-19.43 540.24-19.95 540.87-20.38 541.49-20.8 542.24-21.08 542.99-21.35 543.99-21.35L543.99-21.35Q544.69-21.35 545.79-21.05 546.89-20.75 547.59-20.4L547.59-20.4Z" opacity="1" transform="matrix(1,0,0,1,0,0)" fill="#ba3b0a" class="undefined-text-1" data-fill-palette-color="secondary" id="text-1"></path></svg></g></svg></g></svg></g></svg></g><g></g></svg></g></svg></g></svg></g><defs></defs></svg><rect width="395.52" height="247.2" fill="none" stroke="none" visibility="hidden"></rect></g></svg></g></svg>